<svg width="191" height="144" viewBox="0 0 191 144" fill="none" xmlns="http://www.w3.org/2000/svg">
<path d="M191 61.8314H121.527V44.1682H191V61.8314Z" fill="#E669A2"/>
<path d="M181.976 61.8314H121.527V17.654H181.976V61.8314Z" fill="#F3BE26"/>
<path d="M157.002 61.8314H121.527V0H157.002V61.8314Z" fill="#EE9C34"/>
<path d="M163.981 61.8314H121.527V6.89941H163.981V61.8314Z" fill="#F3BC87"/>
<path d="M121.517 6.90985V61.8258H156.998V6.90985H121.517Z" fill="#E3721C"/>
<path d="M85.9531 61.8314H121.527V70.664H85.9531V61.8314Z" fill="#AD1B02"/>
<path d="M121.517 17.6442V61.8257H164.001V17.6442H121.517Z" fill="#E88D14"/>
<path d="M121.517 17.6442V61.8257H156.998V17.6442H121.517Z" fill="#D85604"/>
<path d="M143.711 61.8314H121.527V35.3154H143.711V61.8314Z" fill="#C14303"/>
<path d="M121.517 44.1808V61.8258H181.997V44.1808H121.517Z" fill="#DB4E18"/>
<path d="M121.517 44.1808V61.8258H164.001V44.1808H121.517Z" fill="#D1390D"/>
<path d="M121.517 44.1808V61.8258H156.998V44.1808H121.517Z" fill="#C22303"/>
<path d="M121.517 44.1808V61.8258H143.733V44.1808H121.517Z" fill="#AD1B02"/>
<path d="M129.261 95.0985C123.208 96.1673 119.98 100.71 119.98 108.593C119.98 116.609 124.284 121.954 130.606 121.954C133.7 121.954 136.39 120.885 142.039 118.079C142.039 124.626 142.039 124.626 142.039 124.626C135.18 127.832 131.144 128.634 125.764 128.634C119.711 128.634 115.407 127.164 112.044 123.557C108.547 120.083 106.664 115.54 106.664 110.33C106.664 98.9731 115.273 91.0902 127.782 91.0902C135.987 91.0902 141.77 94.9648 141.77 100.443C141.77 104.05 139.08 106.589 135.18 106.589C133.162 106.589 131.548 105.921 129.261 104.718" fill="black"/>
<path d="M98.9972 110.33C104.512 103.516 106.53 100.71 106.53 97.3698C106.53 94.0296 103.839 91.0902 100.073 91.0902C97.9212 91.0902 95.9035 92.2927 94.962 93.3615C94.962 107.39 94.962 107.39 94.962 107.39C85.95 119.415 85.95 119.415 85.95 119.415C85.95 92.1591 85.95 92.1591 85.95 92.1591C77.3416 92.1591 77.3416 92.1591 77.3416 92.1591C63.0838 115.54 63.0838 115.54 63.0838 115.54C63.0838 92.1591 63.0838 92.1591 63.0838 92.1591C58.2416 92.1591 58.2416 92.1591 58.2416 92.1591C45.1944 95.0984 45.1944 95.0985 45.1944 95.0985C45.1944 98.4386 45.1944 98.4386 45.1944 98.4386C52.3233 99.1067 52.3233 99.1067 52.3233 99.1067C52.3233 128.1 52.3233 128.1 52.3233 128.1C61.3352 128.1 61.3352 128.1 61.3352 128.1C75.055 105.653 75.055 105.653 75.055 105.653C75.055 128.1 75.055 128.1 75.055 128.1C85.143 128.1 85.143 128.1 85.143 128.1" fill="black"/>
<path d="M17.8894 123.557C18.9655 123.557 19.2345 123.557 19.907 123.557C27.1704 123.557 31.2056 119.148 31.2056 110.33C31.2056 102.981 27.9775 98.9731 21.9246 98.9731C21.1176 98.9731 19.907 99.1067 17.8894 99.5075V123.557ZM17.8894 139.323C23.8077 140.659 23.8077 140.659 23.8077 140.659C23.8077 143.999 23.8077 143.999 23.8077 143.999C0.538027 143.999 0.53803 143.999 0.53803 143.999C0.53803 140.659 0.53803 140.659 0.53803 140.659C5.91831 139.323 5.91831 139.323 5.91831 139.323C5.91831 98.9731 5.91831 98.9731 5.91831 98.9731C-7.28607e-07 98.9731 0 98.9731 0 98.9731C0 95.6329 0 95.6329 0 95.6329C14.1232 91.3574 14.1232 91.3574 14.1232 91.3574C17.8894 91.3574 17.8894 91.3574 17.8894 91.3574C17.8894 96.1673 17.8894 96.1673 17.8894 96.1673C24.4803 92.1591 26.7669 91.491 30.2641 91.491C38.0655 91.491 43.9838 98.7059 43.9838 108.726C43.9838 120.217 36.0479 128.1 23.9423 128.1C22.5972 128.1 20.3106 127.966 17.8894 127.832" fill="black"/>
</svg>
